<svg width="11" height="11" viewBox="0 0 11 11" fill="none" xmlns="http://www.w3.org/2000/svg">
<path d="M5.70758 0.25H5.69258C5.67533 0.25 5.65808 0.2515 5.64008 0.253L5.70758 0.25C5.53988 0.250451 5.37709 0.306649 5.24483 0.40975L5.23883 0.415L5.17733 0.46975L0.677331 4.96975C0.540712 5.1112 0.465116 5.30065 0.466825 5.4973C0.468534 5.69395 0.547411 5.88206 0.686467 6.02111C0.825523 6.16017 1.01363 6.23905 1.21028 6.24076C1.40693 6.24247 1.59638 6.16687 1.73783 6.03025L4.95758 2.8105V10C4.95758 10.1989 5.0366 10.3897 5.17725 10.5303C5.3179 10.671 5.50867 10.75 5.70758 10.75C5.90649 10.75 6.09726 10.671 6.23791 10.5303C6.37856 10.3897 6.45758 10.1989 6.45758 10V2.8105L9.67733 6.03025C9.74651 6.10188 9.82927 6.15902 9.92078 6.19833C10.0123 6.23763 10.1107 6.25832 10.2103 6.25919C10.3099 6.26005 10.4086 6.24108 10.5008 6.20337C10.593 6.16566 10.6767 6.10997 10.7471 6.03955C10.8175 5.96913 10.8732 5.88539 10.9109 5.79321C10.9487 5.70104 10.9676 5.60228 10.9668 5.5027C10.9659 5.40311 10.9452 5.3047 10.9059 5.2132C10.8666 5.12169 10.8095 5.03894 10.7378 4.96975L6.23783 0.46975L6.17633 0.415C6.17434 0.41324 6.17234 0.41149 6.17033 0.40975L6.23783 0.46975C6.10018 0.332873 5.91515 0.25419 5.72108 0.25H5.70758Z" fill="#15C26B"/>
</svg>
