<svg width="11" height="11" viewBox="0 0 11 11" fill="none" xmlns="http://www.w3.org/2000/svg">
<path d="M5.70648 10.75H5.72148C5.73873 10.75 5.75598 10.7485 5.77398 10.747L5.70648 10.75C5.87418 10.7495 6.03697 10.6934 6.16923 10.5903L6.17523 10.585L6.23673 10.5303L10.7367 6.03025C10.8734 5.8888 10.9489 5.69935 10.9472 5.5027C10.9455 5.30605 10.8667 5.11794 10.7276 4.97889C10.5885 4.83983 10.4004 4.76095 10.2038 4.75924C10.0071 4.75754 9.81768 4.83313 9.67623 4.96975L6.45648 8.1895V1C6.45648 0.801088 6.37747 0.610322 6.23681 0.46967C6.09616 0.329018 5.9054 0.25 5.70648 0.25C5.50757 0.25 5.3168 0.329018 5.17615 0.46967C5.0355 0.610322 4.95648 0.801088 4.95648 1V8.1895L1.73673 4.96975C1.66755 4.89812 1.58479 4.84098 1.49329 4.80167C1.40178 4.76237 1.30337 4.74168 1.20378 4.74081C1.1042 4.73995 1.00544 4.75892 0.913267 4.79663C0.821094 4.83434 0.737356 4.89003 0.666936 4.96045C0.596517 5.03087 0.540827 5.11461 0.503116 5.20678C0.465405 5.29896 0.446429 5.39772 0.447294 5.4973C0.448159 5.59689 0.468849 5.6953 0.508156 5.7868C0.547463 5.87831 0.6046 5.96107 0.676232 6.03025L5.17623 10.5303L5.23773 10.585L5.24373 10.5903L5.17623 10.5303C5.31388 10.6671 5.49891 10.7458 5.69298 10.75H5.70648Z" fill="#DD3131"/>
</svg>
