<svg width="25" height="25" viewBox="2.84766 1.8 17.84384 20.57402" fill="none" xmlns="http://www.w3.org/2000/svg">
<g clip-path="url(#clip0_57_28549)">
<g clip-path="url(#clip1_57_28549)">
<path d="M16.4789 3.40324V1.85677C16.4789 1.45033 16.1419 1.11328 15.7355 1.11328C15.329 1.11328 14.992 1.45033 14.992 1.85677V3.34376H8.54833V1.85677C8.54833 1.45033 8.21128 1.11328 7.80484 1.11328C7.3984 1.11328 7.06135 1.45033 7.06135 1.85677V3.40324C4.38477 3.65107 3.08614 5.2471 2.88788 7.61636C2.86805 7.90384 3.10597 8.14176 3.38354 8.14176H20.1568C20.4442 8.14176 20.6822 7.89393 20.6524 7.61636C20.4541 5.2471 19.1555 3.65107 16.4789 3.40324Z" fill="#3A643B"/>
<path opacity="0.4" d="M19.7001 9.63281C20.2454 9.63281 20.6915 10.0789 20.6915 10.6242V16.7307C20.6915 19.7047 19.2045 21.6873 15.7349 21.6873H7.80427C4.33464 21.6873 2.84766 19.7047 2.84766 16.7307V10.6242C2.84766 10.0789 3.29375 9.63281 3.83898 9.63281H19.7001Z" fill="#3A643B"/>
<path d="M8.29992 14.7433C8.04217 14.7433 7.78443 14.6342 7.59608 14.4558C7.41764 14.2674 7.30859 14.0097 7.30859 13.7519C7.30859 13.4942 7.41764 13.2365 7.59608 13.0481C7.87365 12.7705 8.30983 12.6813 8.67662 12.8399C8.80549 12.8895 8.91454 12.9589 9.00376 13.0481C9.18219 13.2365 9.29124 13.4942 9.29124 13.7519C9.29124 14.0097 9.18219 14.2674 9.00376 14.4558C8.8154 14.6342 8.55766 14.7433 8.29992 14.7433Z" fill="#3A643B"/>
<path d="M11.7687 14.7433C11.5109 14.7433 11.2532 14.6342 11.0648 14.4558C10.8864 14.2674 10.7773 14.0097 10.7773 13.7519C10.7773 13.4942 10.8864 13.2365 11.0648 13.0481C11.154 12.9589 11.2631 12.8895 11.392 12.8399C11.7588 12.6813 12.1949 12.7705 12.4725 13.0481C12.6509 13.2365 12.76 13.4942 12.76 13.7519C12.76 14.0097 12.6509 14.2674 12.4725 14.4558C12.4229 14.4954 12.3734 14.5351 12.3238 14.5747C12.2643 14.6144 12.2048 14.6441 12.1454 14.664C12.0859 14.6937 12.0264 14.7135 11.9669 14.7234C11.8975 14.7333 11.8381 14.7433 11.7687 14.7433Z" fill="#3A643B"/>
<path d="M15.2394 14.7444C14.9816 14.7444 14.7239 14.6353 14.5355 14.4569C14.3571 14.2685 14.248 14.0108 14.248 13.753C14.248 13.4953 14.3571 13.2376 14.5355 13.0492C14.6347 12.96 14.7338 12.8906 14.8627 12.841C15.0411 12.7617 15.2394 12.7419 15.4376 12.7815C15.4971 12.7915 15.5566 12.8113 15.6161 12.841C15.6756 12.8609 15.735 12.8906 15.7945 12.9302C15.8441 12.9699 15.8936 13.0095 15.9432 13.0492C16.1216 13.2376 16.2307 13.4953 16.2307 13.753C16.2307 14.0108 16.1216 14.2685 15.9432 14.4569C15.8936 14.4965 15.8441 14.5362 15.7945 14.5758C15.735 14.6155 15.6756 14.6452 15.6161 14.6651C15.5566 14.6948 15.4971 14.7146 15.4376 14.7245C15.3682 14.7345 15.2988 14.7444 15.2394 14.7444Z" fill="#3A643B"/>
<path d="M8.29992 18.217C8.17104 18.217 8.04217 18.1873 7.92321 18.1377C7.79434 18.0881 7.69521 18.0188 7.59608 17.9295C7.41764 17.7412 7.30859 17.4834 7.30859 17.2257C7.30859 16.968 7.41764 16.7102 7.59608 16.5219C7.69521 16.4326 7.79434 16.3632 7.92321 16.3137C8.10165 16.2344 8.29992 16.2145 8.49818 16.2542C8.55766 16.2641 8.61714 16.2839 8.67662 16.3137C8.7361 16.3335 8.79558 16.3632 8.85506 16.4029C8.90462 16.4426 8.95419 16.4822 9.00376 16.5219C9.18219 16.7102 9.29124 16.968 9.29124 17.2257C9.29124 17.4834 9.18219 17.7412 9.00376 17.9295C8.95419 17.9692 8.90462 18.0188 8.85506 18.0485C8.79558 18.0881 8.7361 18.1179 8.67662 18.1377C8.61714 18.1675 8.55766 18.1873 8.49818 18.1972C8.42879 18.2071 8.36931 18.217 8.29992 18.217Z" fill="#3A643B"/>
<path d="M11.7687 18.2163C11.5109 18.2163 11.2532 18.1073 11.0648 17.9289C10.8864 17.7405 10.7773 17.4828 10.7773 17.225C10.7773 16.9673 10.8864 16.7095 11.0648 16.5212C11.4316 16.1544 12.1057 16.1544 12.4725 16.5212C12.6509 16.7095 12.76 16.9673 12.76 17.225C12.76 17.4828 12.6509 17.7405 12.4725 17.9289C12.2842 18.1073 12.0264 18.2163 11.7687 18.2163Z" fill="#3A643B"/>
<path d="M15.2374 18.2163C14.9797 18.2163 14.7219 18.1073 14.5336 17.9289C14.3551 17.7405 14.2461 17.4828 14.2461 17.225C14.2461 16.9673 14.3551 16.7095 14.5336 16.5212C14.9004 16.1544 15.5745 16.1544 15.9413 16.5212C16.1197 16.7095 16.2287 16.9673 16.2287 17.225C16.2287 17.4828 16.1197 17.7405 15.9413 17.9289C15.7529 18.1073 15.4952 18.2163 15.2374 18.2163Z" fill="#3A643B"/>
</g>
</g>
<defs>
<clipPath id="clip0_57_28549">
<rect width="23.7917" height="23.7917" fill="white" transform="translate(0.873047 0.875)"/>
</clipPath>
<clipPath id="clip1_57_28549">
<rect width="23.7917" height="23.7917" fill="white" transform="translate(-0.126953 -0.125)"/>
</clipPath>
</defs>
</svg>
