<svg width="27" height="27" viewBox="0 0 27 27" fill="none" xmlns="http://www.w3.org/2000/svg">
<g clip-path="url(#clip0_57_28582)">
<g clip-path="url(#clip1_57_28582)">
<path opacity="0.4" d="M20.259 15.4362C19.8076 15.8768 19.5497 16.5109 19.6142 17.1879C19.7109 18.3486 20.7748 19.1976 21.9355 19.1976H23.9774V20.4764C23.9774 22.701 22.1612 24.5172 19.9366 24.5172H7.59936C5.37479 24.5172 3.55859 22.701 3.55859 20.4764V13.2439C3.55859 11.0193 5.37479 9.20312 7.59936 9.20312H19.9366C22.1612 9.20312 23.9774 11.0193 23.9774 13.2439V14.7914H21.8065C21.2047 14.7914 20.6566 15.0278 20.259 15.4362Z" fill="#3A643B"/>
<path d="M16.8308 5.11696V9.2007H7.59936C5.37479 9.2007 3.55859 11.0169 3.55859 13.2415V9.29746C3.55859 8.0186 4.3431 6.87939 5.53599 6.42803L14.0689 3.20401C15.4015 2.70967 16.8308 3.68765 16.8308 5.11696Z" fill="#3A643B"/>
<path d="M25.1176 15.893V18.1069C25.1176 18.6979 24.6447 19.1815 24.0429 19.203H21.9366C20.7759 19.203 19.712 18.354 19.6153 17.1934C19.5508 16.5163 19.8087 15.8823 20.2601 15.4417C20.6577 15.0333 21.2058 14.7969 21.8076 14.7969H24.0429C24.6447 14.8184 25.1176 15.302 25.1176 15.893Z" fill="#3A643B"/>
<path d="M15.9185 14.5769H8.39585C7.95523 14.5769 7.58984 14.2115 7.58984 13.7708C7.58984 13.3302 7.95523 12.9648 8.39585 12.9648H15.9185C16.3592 12.9648 16.7246 13.3302 16.7246 13.7708C16.7246 14.2115 16.3592 14.5769 15.9185 14.5769Z" fill="#3A643B"/>
</g>
</g>
<defs>
<clipPath id="clip0_57_28582">
<rect width="25.7921" height="25.7921" fill="white" transform="translate(0.873047 0.875)"/>
</clipPath>
<clipPath id="clip1_57_28582">
<rect width="25.7921" height="25.7921" fill="white" transform="translate(0.873047 0.875)"/>
</clipPath>
</defs>
</svg>
