<svg width="22" height="20" viewBox="0 0 22 20" fill="none" xmlns="http://www.w3.org/2000/svg">
<g clip-path="url(#clip0_57_29508)">
<g clip-path="url(#clip1_57_29508)">
<path d="M15.0236 2.96406V1.66406C15.0236 1.3224 14.7403 1.03906 14.3986 1.03906C14.0569 1.03906 13.7736 1.3224 13.7736 1.66406V2.91406H8.35697V1.66406C8.35697 1.3224 8.07363 1.03906 7.73197 1.03906C7.3903 1.03906 7.10697 1.3224 7.10697 1.66406V2.96406C4.85697 3.17239 3.7653 4.51406 3.59863 6.50573C3.58197 6.74739 3.78197 6.94739 4.0153 6.94739H18.1153C18.3569 6.94739 18.5569 6.73906 18.5319 6.50573C18.3653 4.51406 17.2736 3.17239 15.0236 2.96406Z" fill="#333548" fill-opacity="0.75"/>
<path opacity="0.4" d="M17.7331 8.20312C18.1915 8.20312 18.5665 8.57812 18.5665 9.03646V14.1698C18.5665 16.6698 17.3165 18.3365 14.3998 18.3365H7.73308C4.81641 18.3365 3.56641 16.6698 3.56641 14.1698V9.03646C3.56641 8.57812 3.94141 8.20312 4.39974 8.20312H17.7331Z" fill="#333548" fill-opacity="0.75"/>
<path d="M8.14974 12.5017C7.93308 12.5017 7.71641 12.41 7.55808 12.26C7.40808 12.1017 7.31641 11.885 7.31641 11.6684C7.31641 11.4517 7.40808 11.235 7.55808 11.0767C7.79141 10.8434 8.15808 10.7683 8.46641 10.9017C8.57474 10.9433 8.66641 11.0017 8.74141 11.0767C8.89141 11.235 8.98308 11.4517 8.98308 11.6684C8.98308 11.885 8.89141 12.1017 8.74141 12.26C8.58308 12.41 8.36641 12.5017 8.14974 12.5017Z" fill="#333548" fill-opacity="0.75"/>
<path d="M11.0657 12.5017C10.8491 12.5017 10.6324 12.41 10.4741 12.26C10.3241 12.1017 10.2324 11.885 10.2324 11.6684C10.2324 11.4517 10.3241 11.235 10.4741 11.0767C10.5491 11.0017 10.6407 10.9433 10.7491 10.9017C11.0574 10.7683 11.4241 10.8434 11.6574 11.0767C11.8074 11.235 11.8991 11.4517 11.8991 11.6684C11.8991 11.885 11.8074 12.1017 11.6574 12.26C11.6157 12.2933 11.5741 12.3267 11.5324 12.36C11.4824 12.3933 11.4324 12.4184 11.3824 12.435C11.3324 12.46 11.2824 12.4767 11.2324 12.485C11.1741 12.4934 11.1241 12.5017 11.0657 12.5017Z" fill="#333548" fill-opacity="0.75"/>
<path d="M13.9837 12.5026C13.7671 12.5026 13.5504 12.4109 13.3921 12.2609C13.2421 12.1026 13.1504 11.8859 13.1504 11.6693C13.1504 11.4526 13.2421 11.236 13.3921 11.0776C13.4754 11.0026 13.5587 10.9443 13.6671 10.9026C13.8171 10.8359 13.9837 10.8193 14.1504 10.8526C14.2004 10.8609 14.2504 10.8776 14.3004 10.9026C14.3504 10.9193 14.4004 10.9443 14.4504 10.9776C14.4921 11.011 14.5337 11.0443 14.5754 11.0776C14.7254 11.236 14.8171 11.4526 14.8171 11.6693C14.8171 11.8859 14.7254 12.1026 14.5754 12.2609C14.5337 12.2943 14.4921 12.3276 14.4504 12.3609C14.4004 12.3943 14.3504 12.4193 14.3004 12.436C14.2504 12.461 14.2004 12.4776 14.1504 12.486C14.0921 12.4943 14.0337 12.5026 13.9837 12.5026Z" fill="#333548" fill-opacity="0.75"/>
<path d="M8.14974 15.4167C8.04141 15.4167 7.93308 15.3917 7.83308 15.35C7.72474 15.3084 7.64141 15.25 7.55808 15.175C7.40808 15.0167 7.31641 14.8 7.31641 14.5833C7.31641 14.3667 7.40808 14.15 7.55808 13.9917C7.64141 13.9167 7.72474 13.8583 7.83308 13.8167C7.98308 13.75 8.14974 13.7333 8.31641 13.7667C8.36641 13.775 8.41641 13.7917 8.46641 13.8167C8.51641 13.8333 8.56641 13.8584 8.61641 13.8917C8.65808 13.925 8.69974 13.9584 8.74141 13.9917C8.89141 14.15 8.98308 14.3667 8.98308 14.5833C8.98308 14.8 8.89141 15.0167 8.74141 15.175C8.69974 15.2083 8.65808 15.25 8.61641 15.275C8.56641 15.3083 8.51641 15.3334 8.46641 15.35C8.41641 15.375 8.36641 15.3917 8.31641 15.4C8.25808 15.4084 8.20808 15.4167 8.14974 15.4167Z" fill="#333548" fill-opacity="0.75"/>
<path d="M11.0657 15.4141C10.8491 15.4141 10.6324 15.3224 10.4741 15.1724C10.3241 15.014 10.2324 14.7974 10.2324 14.5807C10.2324 14.3641 10.3241 14.1474 10.4741 13.9891C10.7824 13.6807 11.3491 13.6807 11.6574 13.9891C11.8074 14.1474 11.8991 14.3641 11.8991 14.5807C11.8991 14.7974 11.8074 15.014 11.6574 15.1724C11.4991 15.3224 11.2824 15.4141 11.0657 15.4141Z" fill="#333548" fill-opacity="0.75"/>
<path d="M13.9837 15.4141C13.7671 15.4141 13.5504 15.3224 13.3921 15.1724C13.2421 15.014 13.1504 14.7974 13.1504 14.5807C13.1504 14.3641 13.2421 14.1474 13.3921 13.9891C13.7004 13.6807 14.2671 13.6807 14.5754 13.9891C14.7254 14.1474 14.8171 14.3641 14.8171 14.5807C14.8171 14.7974 14.7254 15.014 14.5754 15.1724C14.4171 15.3224 14.2004 15.4141 13.9837 15.4141Z" fill="#333548" fill-opacity="0.75"/>
</g>
</g>
<defs>
<clipPath id="clip0_57_29508">
<rect width="21" height="20" fill="white" transform="translate(0.5)"/>
</clipPath>
<clipPath id="clip1_57_29508">
<rect width="21" height="20" fill="white" transform="translate(0.5)"/>
</clipPath>
</defs>
</svg>
