<svg width="22" height="22" viewBox="0 0 22 22" fill="none" xmlns="http://www.w3.org/2000/svg">
<g clip-path="url(#clip0_57_29478)">
<g clip-path="url(#clip1_57_29478)">
<path opacity="0.4" d="M15.9053 7.29875C15.8441 7.29 15.7828 7.29 15.7216 7.29875C14.3653 7.255 13.2891 6.14375 13.2891 4.77875C13.2891 3.3875 14.4178 2.25 15.8178 2.25C17.2091 2.25 18.3466 3.37875 18.3466 4.77875C18.3378 6.14375 17.2616 7.255 15.9053 7.29875Z" fill="#474856" fill-opacity="0.75"/>
<path opacity="0.4" d="M18.7561 13.3638C17.7761 14.0201 16.4023 14.2651 15.1336 14.0988C15.4661 13.3813 15.6411 12.5851 15.6498 11.7451C15.6498 10.8701 15.4573 10.0388 15.0898 9.31258C16.3848 9.13758 17.7586 9.38257 18.7473 10.0388C20.1298 10.9488 20.1298 12.4451 18.7561 13.3638Z" fill="#474856" fill-opacity="0.75"/>
<path opacity="0.4" d="M6.20102 7.29875C6.26227 7.29 6.32352 7.29 6.38477 7.29875C7.74102 7.255 8.81727 6.14375 8.81727 4.77875C8.81727 3.3875 7.68852 2.25 6.28852 2.25C4.89727 2.25 3.75977 3.37875 3.75977 4.77875C3.76852 6.14375 4.84477 7.255 6.20102 7.29875Z" fill="#474856" fill-opacity="0.75"/>
<path opacity="0.4" d="M6.29813 11.7452C6.29813 12.594 6.48188 13.399 6.81438 14.1252C5.58063 14.2565 4.29437 13.994 3.34938 13.3727C1.96687 12.454 1.96687 10.9577 3.34938 10.039C4.28562 9.40899 5.60688 9.15525 6.84938 9.29525C6.49063 10.0302 6.29813 10.8615 6.29813 11.7452Z" fill="#474856" fill-opacity="0.75"/>
<path d="M11.1706 14.3862C11.1006 14.3775 11.0219 14.3775 10.9431 14.3862C9.33313 14.3337 8.04688 13.0125 8.04688 11.385C8.04688 9.7225 9.38563 8.375 11.0569 8.375C12.7194 8.375 14.0669 9.7225 14.0669 11.385C14.0669 13.0125 12.7894 14.3337 11.1706 14.3862Z" fill="#474856" fill-opacity="0.75"/>
<path d="M8.32883 16.2C7.00758 17.0837 7.00758 18.5362 8.32883 19.4112C9.83383 20.4175 12.3013 20.4175 13.8063 19.4112C15.1276 18.5275 15.1276 17.075 13.8063 16.2C12.3101 15.1937 9.84258 15.1937 8.32883 16.2Z" fill="#474856" fill-opacity="0.75"/>
</g>
</g>
<defs>
<clipPath id="clip0_57_29478">
<rect width="22" height="21" fill="white" transform="translate(0 0.5)"/>
</clipPath>
<clipPath id="clip1_57_29478">
<rect width="22" height="21" fill="white" transform="translate(0 0.5)"/>
</clipPath>
</defs>
</svg>
