<svg width="26" height="25" viewBox="0 0 26 25" fill="none" xmlns="http://www.w3.org/2000/svg">
<g clip-path="url(#clip0_57_29469)">
<g clip-path="url(#clip1_57_29469)">
<path d="M13.0665 2.5C10.4464 2.5 8.31641 4.63 8.31641 7.25C8.31641 9.82 10.3264 11.9 12.9465 11.99C13.0265 11.98 13.1065 11.98 13.1665 11.99C13.1865 11.99 13.1965 11.99 13.2165 11.99C13.2265 11.99 13.2265 11.99 13.2365 11.99C15.7965 11.9 17.8065 9.82 17.8165 7.25C17.8165 4.63 15.6865 2.5 13.0665 2.5Z" fill="#72747E"/>
<path opacity="0.4" d="M18.1473 14.6528C15.3573 12.7928 10.8073 12.7928 7.99734 14.6528C6.72734 15.5028 6.02734 16.6528 6.02734 17.8828C6.02734 19.1128 6.72734 20.2528 7.98734 21.0928C9.38734 22.0328 11.2273 22.5028 13.0673 22.5028C14.9073 22.5028 16.7473 22.0328 18.1473 21.0928C19.4073 20.2428 20.1073 19.1028 20.1073 17.8628C20.0973 16.6328 19.4073 15.4928 18.1473 14.6528Z" fill="#72747E"/>
<path d="M15.0665 17.1328H13.8165V15.8828C13.8165 15.4728 13.4765 15.1328 13.0665 15.1328C12.6565 15.1328 12.3165 15.4728 12.3165 15.8828V17.1328H11.0665C10.6565 17.1328 10.3164 17.4728 10.3164 17.8828C10.3164 18.2928 10.6565 18.6328 11.0665 18.6328H12.3165V19.8828C12.3165 20.2928 12.6565 20.6328 13.0665 20.6328C13.4765 20.6328 13.8165 20.2928 13.8165 19.8828V18.6328H15.0665C15.4765 18.6328 15.8165 18.2928 15.8165 17.8828C15.8165 17.4728 15.4765 17.1328 15.0665 17.1328Z" fill="#72747E"/>
</g>
</g>
<defs>
<clipPath id="clip0_57_29469">
<rect width="25" height="24" fill="white" transform="translate(0.5 0.5)"/>
</clipPath>
<clipPath id="clip1_57_29469">
<rect width="25" height="24" fill="white" transform="translate(0.5 0.5)"/>
</clipPath>
</defs>
</svg>
