<svg width="20" height="20" viewBox="0 0 20 20" fill="none" xmlns="http://www.w3.org/2000/svg">
<g clip-path="url(#clip0_57_29521)">
<g clip-path="url(#clip1_57_29521)">
<path opacity="0.4" d="M13.491 1.66406H6.50769C3.47436 1.66406 1.66602 3.4724 1.66602 6.50573V13.4807C1.66602 16.5224 3.47436 18.3307 6.50769 18.3307H13.4827C16.516 18.3307 18.3243 16.5224 18.3243 13.4891V6.50573C18.3327 3.4724 16.5243 1.66406 13.491 1.66406Z" fill="#474856" fill-opacity="0.75"/>
<path opacity="0.97" d="M9.99987 8.58958C10.6028 8.58958 11.0915 8.10083 11.0915 7.49792C11.0915 6.89501 10.6028 6.40625 9.99987 6.40625C9.39696 6.40625 8.9082 6.89501 8.9082 7.49792C8.9082 8.10083 9.39696 8.58958 9.99987 8.58958Z" fill="#474856" fill-opacity="0.75"/>
<path opacity="0.97" d="M6.92564 11.4062C6.32564 11.4062 5.83398 11.8979 5.83398 12.4979C5.83398 13.0979 6.32564 13.5896 6.92564 13.5896C7.52564 13.5896 8.01731 13.0979 8.01731 12.4979C8.01731 11.8979 7.52564 11.4062 6.92564 11.4062Z" fill="#474856" fill-opacity="0.75"/>
<path opacity="0.97" d="M13.076 11.4062C12.476 11.4062 11.9844 11.8979 11.9844 12.4979C11.9844 13.0979 12.476 13.5896 13.076 13.5896C13.676 13.5896 14.1677 13.0979 14.1677 12.4979C14.1677 11.8979 13.676 11.4062 13.076 11.4062Z" fill="#474856" fill-opacity="0.75"/>
</g>
</g>
<defs>
<clipPath id="clip0_57_29521">
<rect width="20" height="20" fill="white"/>
</clipPath>
<clipPath id="clip1_57_29521">
<rect width="20" height="20" fill="white"/>
</clipPath>
</defs>
</svg>
