<svg width="22" height="20" viewBox="0 0 22 20" fill="none" xmlns="http://www.w3.org/2000/svg">
<g clip-path="url(#clip0_57_29540)">
<g clip-path="url(#clip1_57_29540)">
<path opacity="0.4" d="M7.73308 18.3307H14.3998C16.6998 18.3307 18.5665 16.4641 18.5665 14.1641V5.83073C18.5665 3.53073 16.6998 1.66406 14.3998 1.66406H7.73308C5.43308 1.66406 3.56641 3.53073 3.56641 5.83073V14.1641C3.56641 16.4641 5.43308 18.3307 7.73308 18.3307Z" fill="#333548" fill-opacity="0.75"/>
<path d="M13.5667 4.75781H8.56667C7.70833 4.75781 7 5.45781 7 6.32448V7.15781C7 8.01615 7.7 8.72448 8.56667 8.72448H13.5667C14.425 8.72448 15.1333 8.02448 15.1333 7.15781V6.32448C15.1333 5.45781 14.4333 4.75781 13.5667 4.75781Z" fill="#333548" fill-opacity="0.75"/>
<path d="M7.86706 12.433C7.75039 12.433 7.64206 12.408 7.54206 12.3664C7.44206 12.3247 7.35039 12.2664 7.27539 12.1914C7.11706 12.033 7.02539 11.8247 7.02539 11.5997C7.02539 11.4914 7.05039 11.383 7.09206 11.283C7.13372 11.1747 7.19206 11.0914 7.27539 11.008C7.46706 10.8164 7.75872 10.7247 8.02539 10.783C8.07539 10.7914 8.13372 10.808 8.18372 10.833C8.23372 10.8497 8.28372 10.8747 8.32539 10.908C8.37539 10.933 8.41706 10.9747 8.45039 11.008C8.52539 11.0914 8.59206 11.1747 8.63372 11.283C8.67539 11.383 8.69206 11.4914 8.69206 11.5997C8.69206 11.8247 8.60872 12.033 8.45039 12.1914C8.29206 12.3497 8.08372 12.433 7.86706 12.433Z" fill="#333548" fill-opacity="0.75"/>
<path d="M11.1927 12.4297C10.976 12.4297 10.7677 12.3464 10.6093 12.188C10.451 12.0297 10.3594 11.8214 10.3594 11.5964C10.3594 11.3797 10.451 11.163 10.6093 11.0047C10.9177 10.6964 11.476 10.6964 11.7843 11.0047C11.8593 11.088 11.926 11.1714 11.9677 11.2797C12.0093 11.3797 12.026 11.488 12.026 11.5964C12.026 11.8214 11.9427 12.0297 11.7843 12.188C11.626 12.3464 11.4177 12.4297 11.1927 12.4297Z" fill="#333548" fill-opacity="0.75"/>
<path d="M14.5247 12.4297C14.3081 12.4297 14.0997 12.3464 13.9414 12.188C13.7831 12.0297 13.6914 11.8214 13.6914 11.5964C13.6914 11.3797 13.7831 11.163 13.9414 11.0047C14.2497 10.6964 14.8081 10.6964 15.1164 11.0047C15.2747 11.163 15.3664 11.3797 15.3664 11.5964C15.3664 11.7047 15.3414 11.813 15.2997 11.913C15.2581 12.013 15.1997 12.1047 15.1164 12.188C14.9581 12.3464 14.7497 12.4297 14.5247 12.4297Z" fill="#333548" fill-opacity="0.75"/>
<path d="M7.86706 15.7641C7.64206 15.7641 7.43372 15.6807 7.27539 15.5224C7.11706 15.3641 7.02539 15.1557 7.02539 14.9307C7.02539 14.7141 7.11706 14.4974 7.27539 14.3391C7.35039 14.2641 7.44206 14.2057 7.54206 14.1641C7.75039 14.0807 7.97539 14.0807 8.18372 14.1641C8.23372 14.1807 8.28372 14.2057 8.32539 14.2391C8.37539 14.2641 8.41706 14.3057 8.45039 14.3391C8.60872 14.4974 8.70039 14.7141 8.70039 14.9307C8.70039 15.1557 8.60872 15.3641 8.45039 15.5224C8.29206 15.6807 8.08372 15.7641 7.86706 15.7641Z" fill="#333548" fill-opacity="0.75"/>
<path d="M11.1927 15.7636C10.976 15.7636 10.7677 15.6803 10.6093 15.5219C10.451 15.3636 10.3594 15.1553 10.3594 14.9303C10.3594 14.8719 10.3677 14.8219 10.376 14.7636C10.3927 14.7136 10.4094 14.6636 10.426 14.6136C10.451 14.5636 10.476 14.5136 10.501 14.4636C10.5343 14.4219 10.5677 14.3803 10.6093 14.3386C10.6843 14.2636 10.776 14.2053 10.876 14.1636C11.1843 14.0386 11.551 14.1053 11.7843 14.3386C11.9427 14.4969 12.026 14.7136 12.026 14.9303C12.026 15.1553 11.9427 15.3636 11.7843 15.5219C11.7093 15.5969 11.6177 15.6553 11.5177 15.6969C11.4177 15.7386 11.3093 15.7636 11.1927 15.7636Z" fill="#333548" fill-opacity="0.75"/>
<path d="M14.5262 15.7636C14.4179 15.7636 14.3095 15.7386 14.2095 15.6969C14.1095 15.6553 14.0179 15.5969 13.9429 15.5219C13.7845 15.3636 13.7012 15.1553 13.7012 14.9303C13.7012 14.7136 13.7845 14.4969 13.9429 14.3386C14.1679 14.1053 14.5429 14.0386 14.8512 14.1636C14.9512 14.2053 15.0429 14.2636 15.1179 14.3386C15.2762 14.4969 15.3595 14.7136 15.3595 14.9303C15.3595 15.1553 15.2762 15.3636 15.1179 15.5219C14.9595 15.6803 14.7512 15.7636 14.5262 15.7636Z" fill="#333548" fill-opacity="0.75"/>
</g>
</g>
<defs>
<clipPath id="clip0_57_29540">
<rect width="21" height="20" fill="white" transform="translate(0.5)"/>
</clipPath>
<clipPath id="clip1_57_29540">
<rect width="21" height="20" fill="white" transform="translate(0.5)"/>
</clipPath>
</defs>
</svg>
