<svg width="22" height="20" viewBox="0 0 22 20" fill="none" xmlns="http://www.w3.org/2000/svg">
<g clip-path="url(#clip0_57_29553)">
<g clip-path="url(#clip1_57_29553)">
<path opacity="0.4" d="M17.2984 10.7943H18.9817V9.59428C18.9817 7.86928 17.5734 6.46094 15.8484 6.46094H6.28177C4.55677 6.46094 3.14844 7.86928 3.14844 9.59428V12.6359C3.80678 12.0359 4.69011 11.6693 5.64844 11.6693C7.72344 11.6693 9.39844 13.3526 9.39844 15.4193C9.39844 15.8609 9.32345 16.2776 9.18178 16.6693C8.95678 17.3276 8.54011 17.8943 8.01511 18.3359H15.8484C17.5734 18.3359 18.9817 16.9276 18.9817 15.2026V14.2109H17.3984C16.4984 14.2109 15.6734 13.5526 15.5984 12.6526C15.5484 12.1276 15.7484 11.6359 16.0984 11.2943C16.4067 10.9776 16.8317 10.7943 17.2984 10.7943Z" fill="#333548" fill-opacity="0.75"/>
<path d="M5.64844 11.6641C4.69011 11.6641 3.80678 12.0307 3.14844 12.6307C2.99844 12.764 2.85678 12.9057 2.73178 13.0641C2.20678 13.7057 1.89844 14.5224 1.89844 15.4141C1.89844 17.4891 3.58178 19.1641 5.64844 19.1641C6.54844 19.1641 7.36511 18.8474 8.01511 18.3307C8.54011 17.8891 8.95678 17.3224 9.18178 16.6641C9.32345 16.2724 9.39844 15.8557 9.39844 15.4141C9.39844 13.3474 7.72344 11.6641 5.64844 11.6641ZM7.89844 14.6891C7.89844 14.9474 7.6901 15.1474 7.4401 15.1474C7.1901 15.1474 6.98178 14.9474 6.98178 14.6891V14.5974C6.98178 14.4974 6.90678 14.4141 6.80678 14.4141H4.92345C5.01511 14.5891 4.99844 14.8057 4.84844 14.9557C4.7651 15.0391 4.64844 15.0891 4.52344 15.0891C4.40677 15.0891 4.29011 15.0391 4.20678 14.9557L3.53178 14.2807C3.49011 14.2391 3.45677 14.1891 3.43177 14.1307C3.39011 14.0224 3.39011 13.8974 3.43177 13.7807C3.45677 13.7307 3.49011 13.6724 3.53178 13.6307L4.20678 12.9641C4.38178 12.7807 4.67344 12.7807 4.84844 12.9641C4.99844 13.1057 5.01511 13.3307 4.92345 13.4974H6.80678C7.40678 13.4974 7.89844 13.9891 7.89844 14.5974V14.6891ZM6.77345 17.9974C6.64845 17.9974 6.53178 17.9557 6.44845 17.8641C6.29845 17.7224 6.28177 17.4974 6.37344 17.3307H4.49011C3.89011 17.3307 3.39844 16.839 3.39844 16.2307V16.1391C3.39844 15.8807 3.60678 15.6807 3.85678 15.6807C4.10678 15.6807 4.3151 15.8807 4.3151 16.1391V16.2307C4.3151 16.3307 4.39011 16.4141 4.49011 16.4141H6.37344C6.28177 16.2391 6.29845 16.0224 6.44845 15.8724C6.62345 15.6974 6.91511 15.6974 7.09011 15.8724L7.7651 16.5474C7.80677 16.5891 7.84011 16.639 7.86511 16.6974C7.90678 16.8057 7.90678 16.9307 7.86511 17.0474C7.84011 17.0974 7.80677 17.1557 7.7651 17.1974L7.09011 17.8641C7.00677 17.9557 6.89011 17.9974 6.77345 17.9974Z" fill="#333548" fill-opacity="0.75"/>
<path d="M13.4401 3.29494V6.4616H6.28177C4.55677 6.4616 3.14844 7.86994 3.14844 9.59494V6.53662C3.14844 5.54496 3.75677 4.66159 4.68177 4.31159L11.2984 1.81159C12.3317 1.42825 13.4401 2.18661 13.4401 3.29494Z" fill="#333548" fill-opacity="0.75"/>
<path d="M19.8681 11.639V13.3557C19.8681 13.8141 19.5014 14.189 19.0347 14.2057H17.4014C16.5014 14.2057 15.6764 13.5474 15.6014 12.6474C15.5514 12.1224 15.7514 11.6307 16.1014 11.289C16.4097 10.9724 16.8347 10.7891 17.3014 10.7891H19.0347C19.5014 10.8057 19.8681 11.1807 19.8681 11.639Z" fill="#333548" fill-opacity="0.75"/>
<path d="M12.7337 10.625H6.90039C6.55872 10.625 6.27539 10.3417 6.27539 10C6.27539 9.65833 6.55872 9.375 6.90039 9.375H12.7337C13.0754 9.375 13.3587 9.65833 13.3587 10C13.3587 10.3417 13.0754 10.625 12.7337 10.625Z" fill="#333548" fill-opacity="0.75"/>
</g>
</g>
<defs>
<clipPath id="clip0_57_29553">
<rect width="21" height="20" fill="white" transform="translate(0.5)"/>
</clipPath>
<clipPath id="clip1_57_29553">
<rect width="21" height="20" fill="white" transform="translate(0.5)"/>
</clipPath>
</defs>
</svg>
