<svg width="11" height="8" viewBox="0 0 11 8" fill="none" xmlns="http://www.w3.org/2000/svg">
<path d="M10.0846 1.79003C10.085 1.58572 10.027 1.38772 9.92073 1.2304C9.8609 1.14185 9.78741 1.06866 9.70449 1.01501C9.62157 0.961365 9.53084 0.928315 9.43749 0.917756C9.34414 0.907196 9.25002 0.919335 9.1605 0.953477C9.07098 0.987619 8.98783 1.04309 8.91581 1.11672L5.09571 5.03418L1.26849 1.25663C1.19559 1.184 1.1117 1.12975 1.02166 1.09702C0.931618 1.06429 0.837188 1.05371 0.743808 1.0659C0.650417 1.07809 0.559917 1.1128 0.477508 1.16805C0.395087 1.22329 0.322388 1.29797 0.263568 1.3878C0.198688 1.47827 0.149747 1.58422 0.119827 1.699C0.0898972 1.81378 0.0796375 1.93491 0.0896673 2.05479C0.0997076 2.17467 0.129838 2.29071 0.178158 2.39562C0.226478 2.50054 0.291958 2.59207 0.370478 2.66447L4.64671 6.88798C4.77424 7.01659 4.9342 7.0869 5.09928 7.0869C5.26436 7.0869 5.42432 7.01659 5.55185 6.88798L9.82807 2.51581C9.91432 2.42809 9.9825 2.31666 10.0271 2.19056C10.0717 2.06445 10.0914 1.92724 10.0846 1.79003Z" fill="#28643B"/>
</svg>
