<svg width="23" height="22" viewBox="0 0 23 22" fill="none" xmlns="http://www.w3.org/2000/svg">
<path d="M4.16536 18.3346C3.6612 18.3346 3.22975 18.1553 2.87103 17.7966C2.51231 17.4378 2.33264 17.0061 2.33203 16.5013V5.5013C2.33203 4.99714 2.5117 4.56569 2.87103 4.20697C3.23036 3.84825 3.66181 3.66858 4.16536 3.66797L5.65495 6.64714C5.76189 6.86102 5.91467 7.02908 6.11328 7.1513C6.31189 7.27352 6.52578 7.33464 6.75495 7.33464C7.21328 7.33464 7.56467 7.13969 7.80911 6.7498C8.05356 6.35991 8.06884 5.95902 7.85495 5.54714L6.91536 3.66797H8.7487L10.2383 6.64714C10.3452 6.86102 10.498 7.02908 10.6966 7.1513C10.8952 7.27352 11.1091 7.33464 11.3383 7.33464C11.7966 7.33464 12.148 7.13969 12.3924 6.7498C12.6369 6.35991 12.6522 5.95902 12.4383 5.54714L11.4987 3.66797H13.332L14.8216 6.64714C14.9286 6.86102 15.0813 7.02908 15.2799 7.1513C15.4786 7.27352 15.6924 7.33464 15.9216 7.33464C16.3799 7.33464 16.7313 7.13969 16.9758 6.7498C17.2202 6.35991 17.2355 5.95902 17.0216 5.54714L16.082 3.66797H18.832C19.3362 3.66797 19.7679 3.84733 20.1273 4.20605C20.4866 4.56477 20.666 4.99652 20.6654 5.5013V8.6638C20.6654 8.84714 20.589 8.99227 20.4362 9.09922C20.2834 9.20616 20.1154 9.23672 19.932 9.19088C19.4279 9.09922 18.9274 9.1258 18.4305 9.27064C17.9337 9.41547 17.487 9.6868 17.0904 10.0846L12.0258 15.1492C11.8577 15.3173 11.7279 15.5122 11.6362 15.7341C11.5445 15.9559 11.4987 16.1887 11.4987 16.4326V17.418C11.4987 17.6777 11.4107 17.8956 11.2347 18.0716C11.0587 18.2476 10.8411 18.3352 10.582 18.3346H4.16536ZM13.332 18.3346V16.8221C13.332 16.6999 13.3549 16.5817 13.4008 16.4674C13.4466 16.3531 13.5154 16.2498 13.607 16.1576L18.3966 11.3909C18.5341 11.2534 18.6869 11.1541 18.8549 11.093C19.023 11.0319 19.1911 11.0013 19.3591 11.0013C19.5424 11.0013 19.7181 11.0358 19.8862 11.1049C20.0543 11.1739 20.207 11.2769 20.3445 11.4138L21.1924 12.2617C21.3147 12.3992 21.4103 12.552 21.4794 12.7201C21.5484 12.8881 21.5826 13.0562 21.582 13.2242C21.5814 13.3923 21.5509 13.5643 21.4904 13.7403C21.4299 13.9163 21.3306 14.0727 21.1924 14.2096L16.4258 18.9763C16.3341 19.068 16.2311 19.1367 16.1169 19.1826C16.0026 19.2284 15.884 19.2513 15.7612 19.2513H14.2487C13.989 19.2513 13.7714 19.1636 13.596 18.9882C13.4206 18.8128 13.3326 18.595 13.332 18.3346ZM19.3591 14.118L20.207 13.2242L19.3591 12.3763L18.4883 13.2471L19.3591 14.118Z" fill="black"/>
</svg>
