<svg width="15" height="16" viewBox="0 0 15 16" fill="none" xmlns="http://www.w3.org/2000/svg">
<path fill-rule="evenodd" clip-rule="evenodd" d="M10.147 8.24051C10.4345 7.952 10.9005 7.952 11.188 8.24051C11.4754 8.52903 11.4754 8.99681 11.188 9.28532L9.07315 11.408C8.09896 12.3858 6.51303 12.3858 5.53886 11.408L3.42405 9.28532C3.1366 8.99681 3.1366 8.52903 3.42405 8.24051C3.7115 7.952 4.17755 7.952 4.465 8.24051L6.56987 10.3532V1.2623C6.56987 0.854242 6.89946 0.523438 7.30601 0.523438C7.71257 0.523438 8.04216 0.854242 8.04216 1.2623V10.3532L10.147 8.24051ZM12.6788 10.9726V13.8364C12.6788 13.9507 12.5842 14.0457 12.4703 14.0457H2.14175C2.02782 14.0457 1.93322 13.9507 1.93322 13.8364V10.9726C1.93322 10.5645 1.60364 10.2337 1.19708 10.2337C0.790517 10.2337 0.460938 10.5645 0.460938 10.9726V13.8364C0.460938 14.7665 1.21506 15.5234 2.14175 15.5234H12.4703C13.397 15.5234 14.1511 14.7665 14.1511 13.8364V10.9726C14.1511 10.5645 13.8215 10.2337 13.4149 10.2337C13.0084 10.2337 12.6788 10.5645 12.6788 10.9726Z" fill="#28643B"/>
</svg>
