<svg width="15" height="14" viewBox="0 0 15 14" fill="none" xmlns="http://www.w3.org/2000/svg">
<path fill-rule="evenodd" clip-rule="evenodd" d="M14.7665 3.93103C14.524 4.18966 14.1257 4.18966 13.8832 3.93103L12.2726 2.25862V13.3793C12.2726 13.7241 11.9955 14 11.6491 14C11.3027 14 11.0256 13.7241 11.0256 13.3793V2.25862L9.41499 3.93103C9.17253 4.18966 8.7742 4.18966 8.53174 3.93103C8.28928 3.67241 8.28928 3.25862 8.53174 3L11.1469 0.258621C11.1469 0.258621 11.1469 0.258621 11.1642 0.241379L11.1988 0.206897C11.3027 0.086207 11.4586 0.0172414 11.6318 0.0172414C11.805 0.0172414 11.9608 0.086207 12.0821 0.206897L14.7491 3C15.0089 3.25862 15.0089 3.67241 14.7665 3.93103ZM4.72163 13.7414L4.66967 13.7931C4.56576 13.9138 4.40989 13.9828 4.23671 13.9828C4.06352 13.9828 3.90765 13.9138 3.78642 13.7931L1.11935 11C0.876885 10.7414 0.876885 10.3276 1.11935 10.069C1.36181 9.81035 1.76014 9.81035 2.0026 10.069L3.61323 11.7414V0.62069C3.61323 0.275862 3.89033 0 4.23671 0C4.58308 0 4.86018 0.275862 4.86018 0.62069V11.7414L6.47082 10.069C6.71328 9.81035 7.11161 9.81035 7.35407 10.069C7.59653 10.3276 7.59653 10.7414 7.35407 11L4.72163 13.7414Z" fill="#3A643B"/>
</svg>
