<svg width="9" height="13" viewBox="0 0 9 13" fill="none" xmlns="http://www.w3.org/2000/svg">
<path d="M1.27717 0.00167624C0.979279 0.00125347 0.690591 0.0766481 0.461216 0.214774C0.332119 0.292553 0.225405 0.388081 0.147187 0.495879C0.0689677 0.603676 0.0207804 0.721628 0.00538454 0.842979C-0.0100113 0.964332 0.00768725 1.0867 0.057466 1.20307C0.107245 1.31945 0.188124 1.42754 0.295475 1.52117L6.00713 6.4873L0.499464 11.4627C0.393562 11.5575 0.314476 11.6665 0.266753 11.7836C0.219031 11.9006 0.203613 12.0234 0.221384 12.1448C0.239154 12.2662 0.289766 12.3838 0.370307 12.491C0.450849 12.5981 0.559734 12.6926 0.690703 12.7691C0.822614 12.8534 0.97709 12.917 1.14444 12.9559C1.31179 12.9949 1.4884 13.0082 1.66318 12.9952C1.83797 12.9821 2.00716 12.9429 2.16011 12.8801C2.31309 12.8173 2.44654 12.7322 2.5521 12.6301L8.70997 7.071C8.89749 6.90521 9 6.69726 9 6.48266C9 6.26805 8.89749 6.06011 8.70997 5.89432L2.33535 0.335223C2.20746 0.223098 2.04499 0.134464 1.86114 0.0765117C1.67727 0.0185595 1.47722 -0.0070803 1.27717 0.00167624Z" fill="#383838"/>
</svg>
