<svg width="16" height="16" viewBox="0 0 16 16" fill="none" xmlns="http://www.w3.org/2000/svg">
<g clip-path="url(#clip0_57_28911)">
<g clip-path="url(#clip1_57_28911)">
<g clip-path="url(#clip2_57_28911)">
<path d="M14.3158 6.81579H9.18421V1.68421C9.18421 1.03684 8.64737 0.5 8 0.5C7.35263 0.5 6.81579 1.03684 6.81579 1.68421V6.81579H1.68421C1.03684 6.81579 0.5 7.35263 0.5 8C0.5 8.64737 1.03684 9.18421 1.68421 9.18421H6.81579V14.3158C6.81579 14.9632 7.35263 15.5 8 15.5C8.64737 15.5 9.18421 14.9632 9.18421 14.3158V9.18421H14.3158C14.9632 9.18421 15.5 8.64737 15.5 8C15.5 7.35263 14.9632 6.81579 14.3158 6.81579Z" fill="#28643B"/>
</g>
</g>
</g>
<defs>
<clipPath id="clip0_57_28911">
<rect width="15" height="15" fill="white" transform="translate(0.5 0.5)"/>
</clipPath>
<clipPath id="clip1_57_28911">
<rect width="15" height="15" fill="white" transform="translate(0.5 0.5)"/>
</clipPath>
<clipPath id="clip2_57_28911">
<rect width="15" height="15" fill="white" transform="translate(0.5 0.5)"/>
</clipPath>
</defs>
</svg>
