<svg width="9" height="13" viewBox="0 0 9 13" fill="none" xmlns="http://www.w3.org/2000/svg">
<path d="M7.72283 12.9983C8.02072 12.9987 8.30941 12.9234 8.53878 12.7852C8.66788 12.7074 8.77459 12.6119 8.85281 12.5041C8.93103 12.3963 8.97922 12.2784 8.99462 12.157C9.01001 12.0357 8.99231 11.9133 8.94253 11.7969C8.89276 11.6806 8.81188 11.5725 8.70452 11.4788L2.99287 6.5127L8.50054 1.53731C8.60644 1.44254 8.68552 1.33349 8.73325 1.21643C8.78097 1.09938 8.79639 0.976624 8.77862 0.855229C8.76085 0.733823 8.71023 0.616172 8.62969 0.509039C8.54915 0.401894 8.44027 0.307384 8.3093 0.230918C8.17739 0.146574 8.02291 0.0829506 7.85556 0.044055C7.68821 0.00514603 7.5116 -0.00819206 7.33682 0.00484657C7.16203 0.0178986 6.99284 0.0570688 6.83989 0.119884C6.68691 0.1827 6.55346 0.267824 6.4479 0.369901L0.290026 5.929C0.102512 6.09479 0 6.30274 0 6.51734C0 6.73195 0.102512 6.93989 0.290026 7.10568L6.66465 12.6648C6.79254 12.7769 6.95501 12.8655 7.13886 12.9235C7.32273 12.9814 7.52278 13.0071 7.72283 12.9983Z" fill="#383838"/>
</svg>
