<svg width="19" height="19" viewBox="0 0 19 19" fill="none" xmlns="http://www.w3.org/2000/svg">
<g clip-path="url(#clip0_57_28922)">
<path opacity="0.4" d="M8.73601 15.6829C12.5727 15.6829 15.6829 12.5727 15.6829 8.73602C15.6829 4.89932 12.5727 1.78906 8.73601 1.78906C4.89931 1.78906 1.78906 4.89932 1.78906 8.73602C1.78906 12.5727 4.89931 15.6829 8.73601 15.6829Z" fill="#28643B"/>
<path d="M17.203 14.8614C16.9485 14.391 16.4088 14.1289 15.684 14.1289C15.1366 14.1289 14.6663 14.3525 14.3887 14.738C14.1111 15.1235 14.0494 15.6401 14.2191 16.1567C14.5506 17.159 15.1289 17.3827 15.445 17.4212C15.4913 17.4289 15.5376 17.4289 15.5915 17.4289C15.9308 17.4289 16.455 17.2824 16.9639 16.5191C17.3726 15.9254 17.4496 15.3317 17.203 14.8614Z" fill="#28643B" fill-opacity="0.5"/>
</g>
<defs>
<clipPath id="clip0_57_28922">
<rect width="18.5046" height="18.5046" fill="white" transform="translate(0.25 0.25)"/>
</clipPath>
</defs>
</svg>
